# xmcd
#
# Track frame offsets:
#	150
#	23780
#	41020
#	64577
#	85180
#	106370
#	123167
#	147870
#	163892
#	181645
#	201245
#	217385
#	238545
#	253765
#
# Disc length: 3589 seconds
#
# Revision: 0
# Processed by: cddbd v1.4PL0 Copyright (c) Steve Scherf et al.
# Submitted via: dBpowerAMP V4.0
#
DISCID=c60e030e
DTITLE=Varios - 11a Sapecada da Cancao Nativa
DYEAR=2003
DGENRE=Country
TTITLE0=Apaysanado
TTITLE1=Pedaço de Céu
TTITLE2=O Rio dos Homens sem Sonho
TTITLE3=Causo de Sangue e Rosas
TTITLE4=La Pucha, Como Era Lindo
TTITLE5=Campeando Alçado
TTITLE6=Vindita
TTITLE7=Lageana
TTITLE8=Tento a Tento
TTITLE9=Por Essas Chuvas de Julho
TTITLE10=De Sebo e Cravador das Mãos
TTITLE11=De Chapecó a Uruguaiana
TTITLE12=Vez por Outra
TTITLE13=Boca
EXTD=
EXTT0=
EXTT1=
EXTT2=
EXTT3=
EXTT4=
EXTT5=
EXTT6=
EXTT7=
EXTT8=
EXTT9=
EXTT10=
EXTT11=
EXTT12=
EXTT13=
PLAYORDER=
